<svg width="47" height="46" viewBox="0 0 47 46" fill="none" xmlns="http://www.w3.org/2000/svg">
<circle opacity="0.3" cx="23.5" cy="23.5" r="22.5" stroke="white"/>
<path fill-rule="evenodd" clip-rule="evenodd" d="M24.1083 11.1094C17.6116 11.1094 12.3262 16.3948 12.3262 22.8915C12.3262 29.3882 17.6116 34.6736 24.1083 34.6736C30.605 34.6736 35.8904 29.3882 35.8904 22.8915C35.8904 16.3948 30.605 11.1094 24.1083 11.1094ZM31.8982 16.5427C33.2999 18.2552 34.1487 20.4364 34.1708 22.8117C33.839 22.7415 30.5118 22.0667 27.1632 22.4878C26.8899 21.8207 26.632 21.2339 26.2787 20.5108C29.9996 18.9916 31.6861 16.8297 31.8982 16.5427ZM25.505 19.0143C29.0835 17.673 30.5984 15.6368 30.7794 15.379C28.3045 13.1832 24.9414 12.3535 21.7499 13.1228C22.0281 13.4953 23.8559 15.9844 25.505 19.0143ZM19.8297 13.7993C20.095 14.1632 21.8934 16.6553 23.5609 19.6195C18.8534 20.8696 14.7072 20.8516 14.2571 20.8457C14.9097 17.7228 17.0142 15.1273 19.8297 13.7993ZM14.0497 22.5993C14.0466 22.7015 14.0446 22.8039 14.0446 22.9068C14.0446 25.4916 15.0244 27.8516 16.6317 29.6357C18.263 26.8432 21.5694 23.9 25.2085 22.875C24.9559 22.3033 24.6806 21.7309 24.3926 21.1671C19.3668 22.6712 14.49 22.6083 14.0497 22.5993ZM17.9311 30.8461C18.9823 28.6971 21.8352 25.9232 25.8925 24.5391C27.3054 28.2107 27.8897 31.2878 28.0394 32.1707C24.8035 33.5491 20.9124 33.1709 17.9311 30.8461ZM27.7762 24.074C29.0924 27.6912 29.6281 30.6372 29.7312 31.2494C31.9889 29.7228 33.5962 27.3044 34.0448 24.5042C33.7005 24.3956 30.9298 23.5692 27.7762 24.074Z" fill="white"/>
<mask id="mask0_47_87" style="mask-type:alpha" maskUnits="userSpaceOnUse" x="12" y="11" width="24" height="24">
<path fill-rule="evenodd" clip-rule="evenodd" d="M24.1083 11.1094C17.6116 11.1094 12.3262 16.3948 12.3262 22.8915C12.3262 29.3882 17.6116 34.6736 24.1083 34.6736C30.605 34.6736 35.8904 29.3882 35.8904 22.8915C35.8904 16.3948 30.605 11.1094 24.1083 11.1094ZM31.8982 16.5427C33.2999 18.2552 34.1487 20.4364 34.1708 22.8117C33.839 22.7415 30.5118 22.0667 27.1632 22.4878C26.8899 21.8207 26.632 21.2339 26.2787 20.5108C29.9996 18.9916 31.6861 16.8297 31.8982 16.5427ZM25.505 19.0143C29.0835 17.673 30.5984 15.6368 30.7794 15.379C28.3045 13.1832 24.9414 12.3535 21.7499 13.1228C22.0281 13.4953 23.8559 15.9844 25.505 19.0143ZM19.8297 13.7993C20.095 14.1632 21.8934 16.6553 23.5609 19.6195C18.8534 20.8696 14.7072 20.8516 14.2571 20.8457C14.9097 17.7228 17.0142 15.1273 19.8297 13.7993ZM14.0497 22.5993C14.0466 22.7015 14.0446 22.8039 14.0446 22.9068C14.0446 25.4916 15.0244 27.8516 16.6317 29.6357C18.263 26.8432 21.5694 23.9 25.2085 22.875C24.9559 22.3033 24.6806 21.7309 24.3926 21.1671C19.3668 22.6712 14.49 22.6083 14.0497 22.5993ZM17.9311 30.8461C18.9823 28.6971 21.8352 25.9232 25.8925 24.5391C27.3054 28.2107 27.8897 31.2878 28.0394 32.1707C24.8035 33.5491 20.9124 33.1709 17.9311 30.8461ZM27.7762 24.074C29.0924 27.6912 29.6281 30.6372 29.7312 31.2494C31.9889 29.7228 33.5962 27.3044 34.0448 24.5042C33.7005 24.3956 30.9298 23.5692 27.7762 24.074Z" fill="white"/>
</mask>
<g mask="url(#mask0_47_87)">
</g>
</svg>
