<svg width="46" height="46" viewBox="0 0 46 46" fill="none" xmlns="http://www.w3.org/2000/svg">
<circle opacity="0.3" cx="22.5" cy="23.5" r="22.5" stroke="white"/>
<path d="M20.3058 36.2696V25.3902H16.4189V21.0669H20.3058V17.6606C20.3058 13.9597 22.7179 11.9453 26.2399 11.9453C27.9274 11.9453 29.3767 12.0641 29.7973 12.1163V15.9835H27.3548C25.4392 15.9835 25.0693 16.8387 25.0693 18.0882V21.0669H29.3919L28.799 25.3902H25.0693V36.2696" fill="white"/>
<mask id="mask0_47_68" style="mask-type:alpha" maskUnits="userSpaceOnUse" x="16" y="11" width="14" height="26">
<path d="M20.3058 36.2696V25.3902H16.4189V21.0669H20.3058V17.6606C20.3058 13.9597 22.7179 11.9453 26.2399 11.9453C27.9274 11.9453 29.3767 12.0641 29.7973 12.1163V15.9835H27.3548C25.4392 15.9835 25.0693 16.8387 25.0693 18.0882V21.0669H29.3919L28.799 25.3902H25.0693V36.2696" fill="white"/>
</mask>
<g mask="url(#mask0_47_68)">
</g>
</svg>
