<svg width="33" height="33" viewBox="0 0 33 33" fill="none" xmlns="http://www.w3.org/2000/svg">
<ellipse cx="16.5649" cy="16.5" rx="15.5649" ry="15.5" stroke="#E1E1E1"/>
<path d="M15.0472 25.2978V17.8031H12.3584V14.8248H15.0472V12.4782C15.0472 9.92868 16.7159 8.54102 19.1523 8.54102C20.3196 8.54102 21.3222 8.62284 21.6132 8.65884V11.3229H19.9235C18.5984 11.3229 18.3425 11.912 18.3425 12.7728V14.8248H21.3328L20.9226 17.8031H18.3425V25.2978" fill="#1A1A1A"/>
<mask id="mask0_47_2175" style="mask-type:alpha" maskUnits="userSpaceOnUse" x="12" y="8" width="10" height="18">
<path d="M15.0472 25.2978V17.8031H12.3584V14.8248H15.0472V12.4782C15.0472 9.92868 16.7159 8.54102 19.1523 8.54102C20.3196 8.54102 21.3222 8.62284 21.6132 8.65884V11.3229H19.9235C18.5984 11.3229 18.3425 11.912 18.3425 12.7728V14.8248H21.3328L20.9226 17.8031H18.3425V25.2978" fill="white"/>
</mask>
<g mask="url(#mask0_47_2175)">
</g>
</svg>
