<svg width="47" height="46" viewBox="0 0 47 46" fill="none" xmlns="http://www.w3.org/2000/svg">
<circle opacity="0.3" cx="23.5" cy="23.5" r="22.5" stroke="white"/>
<path d="M33.7702 19.154C33.7857 19.37 33.7857 19.5861 33.7857 19.8022C33.7857 26.3926 28.7696 33.9862 19.6017 33.9862C16.7772 33.9862 14.1534 33.1682 11.9463 31.7483C12.3476 31.7946 12.7334 31.81 13.1502 31.81C15.4807 31.81 17.6261 31.0229 19.3393 29.6801C17.1476 29.6338 15.3109 28.1984 14.6781 26.2228C14.9868 26.2691 15.2955 26.3 15.6196 26.3C16.0672 26.3 16.5148 26.2382 16.9315 26.1302C14.6473 25.6672 12.934 23.6608 12.934 21.2376V21.1759C13.5977 21.5463 14.3695 21.7778 15.1874 21.8086C13.8446 20.9134 12.9649 19.3855 12.9649 17.6568C12.9649 16.7308 13.2118 15.8819 13.644 15.1411C16.0981 18.1662 19.7868 20.1417 23.9232 20.3578C23.846 19.9874 23.7997 19.6016 23.7997 19.2157C23.7997 16.4684 26.0222 14.2305 28.7849 14.2305C30.2203 14.2305 31.5168 14.8324 32.4274 15.8048C33.5541 15.5887 34.6345 15.1719 35.5914 14.6009C35.221 15.7585 34.4338 16.7308 33.3998 17.3482C34.403 17.2402 35.3754 16.9623 36.2705 16.5765C35.5915 17.5642 34.7426 18.4439 33.7702 19.154Z" fill="white"/>
<mask id="mask0_47_73" style="mask-type:alpha" maskUnits="userSpaceOnUse" x="11" y="14" width="26" height="20">
<path d="M33.7702 19.154C33.7857 19.37 33.7857 19.5861 33.7857 19.8022C33.7857 26.3926 28.7696 33.9862 19.6017 33.9862C16.7772 33.9862 14.1534 33.1682 11.9463 31.7483C12.3476 31.7946 12.7334 31.81 13.1502 31.81C15.4807 31.81 17.6261 31.0229 19.3393 29.6801C17.1476 29.6338 15.3109 28.1984 14.6781 26.2228C14.9868 26.2691 15.2955 26.3 15.6196 26.3C16.0672 26.3 16.5148 26.2382 16.9315 26.1302C14.6473 25.6672 12.934 23.6608 12.934 21.2376V21.1759C13.5977 21.5463 14.3695 21.7778 15.1874 21.8086C13.8446 20.9134 12.9649 19.3855 12.9649 17.6568C12.9649 16.7308 13.2118 15.8819 13.644 15.1411C16.0981 18.1662 19.7868 20.1417 23.9232 20.3578C23.846 19.9874 23.7997 19.6016 23.7997 19.2157C23.7997 16.4684 26.0222 14.2305 28.7849 14.2305C30.2203 14.2305 31.5168 14.8324 32.4274 15.8048C33.5541 15.5887 34.6345 15.1719 35.5914 14.6009C35.221 15.7585 34.4338 16.7308 33.3998 17.3482C34.403 17.2402 35.3754 16.9623 36.2705 16.5765C35.5915 17.5642 34.7426 18.4439 33.7702 19.154Z" fill="white"/>
</mask>
<g mask="url(#mask0_47_73)">
</g>
</svg>
