<svg width="33" height="33" viewBox="0 0 33 33" fill="none" xmlns="http://www.w3.org/2000/svg">
<ellipse cx="16.5219" cy="16.5" rx="15.5649" ry="15.5" stroke="#E1E1E1"/>
<path d="M23.6265 13.506C23.6372 13.6548 23.6372 13.8037 23.6372 13.9526C23.6372 18.4926 20.1672 23.7238 13.8251 23.7238C11.8712 23.7238 10.0561 23.1602 8.5293 22.1821C8.80691 22.214 9.07381 22.2246 9.3621 22.2246C10.9743 22.2246 12.4584 21.6824 13.6436 20.7574C12.1274 20.7254 10.8569 19.7366 10.4191 18.3757C10.6327 18.4075 10.8462 18.4288 11.0704 18.4288C11.38 18.4288 11.6897 18.3863 11.978 18.3119C10.3978 17.9929 9.21259 16.6107 9.21259 14.9414V14.8989C9.67169 15.154 10.2056 15.3135 10.7714 15.3348C9.84252 14.7181 9.23396 13.6655 9.23396 12.4746C9.23396 11.8367 9.40476 11.2519 9.70373 10.7416C11.4014 12.8255 13.9532 14.1864 16.8146 14.3353C16.7612 14.0801 16.7292 13.8144 16.7292 13.5485C16.7292 11.6559 18.2667 10.1143 20.1778 10.1143C21.1708 10.1143 22.0676 10.5289 22.6976 11.1988C23.477 11.0499 24.2244 10.7628 24.8864 10.3694C24.6301 11.1669 24.0856 11.8367 23.3702 12.262C24.0643 12.1876 24.7369 11.9962 25.3562 11.7304C24.8864 12.4108 24.2992 13.0169 23.6265 13.506Z" fill="#1A1A1A"/>
<mask id="mask0_47_2180" style="mask-type:alpha" maskUnits="userSpaceOnUse" x="8" y="10" width="18" height="14">
<path d="M23.6265 13.506C23.6372 13.6548 23.6372 13.8037 23.6372 13.9526C23.6372 18.4926 20.1672 23.7238 13.8251 23.7238C11.8712 23.7238 10.0561 23.1602 8.5293 22.1821C8.80691 22.214 9.07381 22.2246 9.3621 22.2246C10.9743 22.2246 12.4584 21.6824 13.6436 20.7574C12.1274 20.7254 10.8569 19.7366 10.4191 18.3757C10.6327 18.4075 10.8462 18.4288 11.0704 18.4288C11.38 18.4288 11.6897 18.3863 11.978 18.3119C10.3978 17.9929 9.21259 16.6107 9.21259 14.9414V14.8989C9.67169 15.154 10.2056 15.3135 10.7714 15.3348C9.84252 14.7181 9.23396 13.6655 9.23396 12.4746C9.23396 11.8367 9.40476 11.2519 9.70373 10.7416C11.4014 12.8255 13.9532 14.1864 16.8146 14.3353C16.7612 14.0801 16.7292 13.8144 16.7292 13.5485C16.7292 11.6559 18.2667 10.1143 20.1778 10.1143C21.1708 10.1143 22.0676 10.5289 22.6976 11.1988C23.477 11.0499 24.2244 10.7628 24.8864 10.3694C24.6301 11.1669 24.0856 11.8367 23.3702 12.262C24.0643 12.1876 24.7369 11.9962 25.3562 11.7304C24.8864 12.4108 24.2992 13.0169 23.6265 13.506Z" fill="white"/>
</mask>
<g mask="url(#mask0_47_2180)">
</g>
</svg>
