<svg width="33" height="33" viewBox="0 0 33 33" fill="none" xmlns="http://www.w3.org/2000/svg">
<ellipse cx="16.478" cy="16.5" rx="15.5649" ry="15.5" stroke="#E1E1E1"/>
<path fill-rule="evenodd" clip-rule="evenodd" d="M22.2906 11.602C22.977 11.7882 23.5176 12.3368 23.7011 13.0334C24.0345 14.2961 24.0345 16.9305 24.0345 16.9305C24.0345 16.9305 24.0345 19.5649 23.7011 20.8276C23.5176 21.5242 22.977 22.05 22.2906 22.2362C21.0464 22.5745 16.0573 22.5745 16.0573 22.5745C16.0573 22.5745 11.0682 22.5745 9.824 22.2362C9.13757 22.05 8.59695 21.5242 8.41346 20.8276C8.08008 19.5649 8.08008 16.9305 8.08008 16.9305C8.08008 16.9305 8.08008 14.2961 8.41346 13.0334C8.59695 12.3368 9.13757 11.7882 9.824 11.602C11.0682 11.2637 16.0573 11.2637 16.0573 11.2637C16.0573 11.2637 21.0464 11.2637 22.2906 11.602ZM18.5955 16.9306L14.4256 14.5387V19.3224L18.5955 16.9306Z" fill="#1A1A1A"/>
<mask id="mask0_47_2185" style="mask-type:alpha" maskUnits="userSpaceOnUse" x="8" y="11" width="17" height="12">
<path fill-rule="evenodd" clip-rule="evenodd" d="M22.2906 11.602C22.977 11.7882 23.5176 12.3368 23.7011 13.0334C24.0345 14.2961 24.0345 16.9305 24.0345 16.9305C24.0345 16.9305 24.0345 19.5649 23.7011 20.8276C23.5176 21.5242 22.977 22.05 22.2906 22.2362C21.0464 22.5745 16.0573 22.5745 16.0573 22.5745C16.0573 22.5745 11.0682 22.5745 9.824 22.2362C9.13757 22.05 8.59695 21.5242 8.41346 20.8276C8.08008 19.5649 8.08008 16.9305 8.08008 16.9305C8.08008 16.9305 8.08008 14.2961 8.41346 13.0334C8.59695 12.3368 9.13757 11.7882 9.824 11.602C11.0682 11.2637 16.0573 11.2637 16.0573 11.2637C16.0573 11.2637 21.0464 11.2637 22.2906 11.602ZM18.5955 16.9306L14.4256 14.5387V19.3224L18.5955 16.9306Z" fill="white"/>
</mask>
<g mask="url(#mask0_47_2185)">
</g>
</svg>
