<svg width="47" height="46" viewBox="0 0 47 46" fill="none" xmlns="http://www.w3.org/2000/svg">
<circle opacity="0.3" cx="23.5" cy="23.5" r="22.5" stroke="white"/>
<path fill-rule="evenodd" clip-rule="evenodd" d="M31.9025 16.3896C32.8948 16.6598 33.6763 17.4562 33.9415 18.4674C34.4234 20.3003 34.4234 24.1245 34.4234 24.1245C34.4234 24.1245 34.4234 27.9486 33.9415 29.7815C33.6763 30.7927 32.8948 31.556 31.9025 31.8262C30.1039 32.3174 22.8919 32.3174 22.8919 32.3174C22.8919 32.3174 15.6799 32.3174 13.8813 31.8262C12.889 31.556 12.1075 30.7927 11.8423 29.7815C11.3604 27.9486 11.3604 24.1245 11.3604 24.1245C11.3604 24.1245 11.3604 20.3003 11.8423 18.4674C12.1075 17.4562 12.889 16.6599 13.8813 16.3896C15.6799 15.8984 22.8919 15.8984 22.8919 15.8984C22.8919 15.8984 30.1039 15.8984 31.9025 16.3896ZM26.561 24.1246L20.5332 20.6524V27.5965L26.561 24.1246Z" fill="white"/>
<mask id="mask0_47_78" style="mask-type:alpha" maskUnits="userSpaceOnUse" x="11" y="15" width="24" height="18">
<path fill-rule="evenodd" clip-rule="evenodd" d="M31.9025 16.3896C32.8948 16.6598 33.6763 17.4562 33.9415 18.4674C34.4234 20.3003 34.4234 24.1245 34.4234 24.1245C34.4234 24.1245 34.4234 27.9486 33.9415 29.7815C33.6763 30.7927 32.8948 31.556 31.9025 31.8262C30.1039 32.3174 22.8919 32.3174 22.8919 32.3174C22.8919 32.3174 15.6799 32.3174 13.8813 31.8262C12.889 31.556 12.1075 30.7927 11.8423 29.7815C11.3604 27.9486 11.3604 24.1245 11.3604 24.1245C11.3604 24.1245 11.3604 20.3003 11.8423 18.4674C12.1075 17.4562 12.889 16.6599 13.8813 16.3896C15.6799 15.8984 22.8919 15.8984 22.8919 15.8984C22.8919 15.8984 30.1039 15.8984 31.9025 16.3896ZM26.561 24.1246L20.5332 20.6524V27.5965L26.561 24.1246Z" fill="white"/>
</mask>
<g mask="url(#mask0_47_78)">
</g>
</svg>
